<svg width="312" height="116" viewBox="0 0 312 116" fill="none" xmlns="http://www.w3.org/2000/svg">
<g clip-path="url(#clip0_319_48)">
<path d="M161.08 38.4218L175.923 37.4613C176.262 39.8909 176.883 41.699 177.899 42.9985C179.535 45.0326 181.793 46.0497 184.784 46.0497C186.986 46.0497 188.735 45.5412 189.92 44.4676C191.049 43.6201 191.726 42.264 191.726 40.8514C191.726 39.4954 191.106 38.1958 190.033 37.3483C188.904 36.3312 186.252 35.3142 182.075 34.4101C175.246 32.8846 170.336 30.8505 167.457 28.2513C164.579 25.8217 162.942 22.2621 163.055 18.4764C163.055 15.8773 163.845 13.2781 165.313 11.131C167.006 8.70142 169.32 6.78033 172.085 5.70678C175.077 4.40722 179.253 3.72919 184.502 3.72919C190.936 3.72919 195.847 4.91574 199.233 7.34536C202.619 9.71847 204.651 13.5607 205.272 18.8154L190.598 19.6629C190.203 17.4028 189.412 15.7643 188.114 14.6907C186.816 13.6172 185.123 13.1086 182.922 13.1086C181.116 13.1086 179.761 13.5042 178.858 14.2387C178.012 14.9167 177.447 15.9338 177.504 17.0638C177.504 17.9114 177.955 18.7024 178.632 19.2109C179.366 19.889 181.116 20.5105 183.881 21.0755C190.711 22.5446 195.564 24.0136 198.556 25.5392C201.547 27.0648 203.692 28.9294 204.99 31.133C206.344 33.3931 207.022 35.9922 206.965 38.6478C206.965 41.812 206.062 44.9761 204.256 47.6318C202.394 50.4004 199.797 52.5475 196.75 53.8471C193.533 55.2596 189.469 55.9942 184.615 55.9942C176.036 55.9942 170.11 54.3556 166.78 51.0219C163.45 47.6883 161.475 43.5071 161.08 38.4218ZM3.55572 55.1466V4.63323H29.5745C34.3719 4.63323 38.097 5.02875 40.6368 5.87629C43.1201 6.66733 45.3213 8.3059 46.7887 10.5095C48.4255 12.9391 49.2156 15.7643 49.1592 18.7024C49.3285 23.6746 46.7887 28.4209 42.4428 30.907C40.7496 31.8675 38.8871 32.5456 36.9682 32.8846C38.3792 33.2801 39.7902 33.9581 41.0318 34.7492C41.9913 35.5402 42.7815 36.4442 43.5152 37.4048C44.3618 38.3653 45.0955 39.4389 45.7164 40.5689L53.2793 55.2031H35.5572L27.2041 39.6649C26.1317 37.6873 25.2287 36.3877 24.3821 35.7662C23.2533 34.9752 21.8987 34.5796 20.5441 34.5796H19.1896V55.0901H3.55572V55.1466ZM19.1896 25.0872H25.7931C27.2041 24.9742 28.5586 24.7482 29.9132 24.4092C30.9291 24.2397 31.8321 23.6746 32.453 22.8271C33.9768 20.793 33.7511 17.9114 31.8886 16.1598C30.8726 15.3122 28.8973 14.8602 26.0753 14.8602H19.1896V25.0872ZM0 98.4277L14.8437 97.4671C15.1823 99.8967 15.8032 101.705 16.8191 103.004C18.3994 105.038 20.7135 106.112 23.7048 106.112C25.9059 106.112 27.6556 105.604 28.8408 104.53C29.9696 103.626 30.6469 102.326 30.6469 100.914C30.6469 99.5577 30.026 98.2582 28.9537 97.4106C27.8249 96.3936 25.1722 95.3765 20.9392 94.4725C14.11 92.9469 9.19971 90.9128 6.32127 88.3137C3.44284 85.8841 1.80608 82.3244 1.91896 78.5387C1.91896 75.9396 2.70912 73.3405 4.17656 71.1934C5.86975 68.7638 8.18379 66.8427 10.9493 65.7691C13.9407 64.4696 18.1172 63.7915 23.3661 63.7915C29.8003 63.7915 34.7106 64.9781 38.097 67.4077C41.4834 69.8373 43.4588 73.623 44.0796 78.8777L29.4052 79.7253C29.0101 77.4652 28.22 75.8266 26.9219 74.7531C25.6802 73.6795 23.9305 73.171 21.7294 73.2275C19.9233 73.2275 18.5687 73.623 17.6657 74.414C16.7627 75.0921 16.2547 76.1091 16.3111 77.2392C16.3111 78.0867 16.7627 78.8777 17.4399 79.3863C18.1737 80.0643 19.9233 80.6858 22.6889 81.2509C29.5181 82.7199 34.3719 84.189 37.3632 85.7146C40.3546 87.2401 42.4993 89.1047 43.7974 91.3083C45.152 93.5684 45.8292 96.1676 45.8292 98.7667C45.8292 101.931 44.8698 105.038 43.1201 107.694C41.2576 110.463 38.6614 112.61 35.6136 113.909C32.3965 115.322 28.3329 116.057 23.479 116.057C14.9001 116.057 8.97395 114.418 5.64399 111.084C2.31404 107.694 0.45152 103.513 0 98.4277H0Z" fill="#2D2F31"/>
<path d="M75.0654 94.4725L88.7238 98.5972C87.9901 102.044 86.4663 105.321 84.378 108.203C82.459 110.745 79.9192 112.723 77.0408 114.022C74.1059 115.322 70.3809 116 65.8657 116C60.391 116 55.8758 115.209 52.433 113.627C48.9337 112.045 45.9424 109.22 43.4026 105.208C40.8628 101.196 39.6211 96.0545 39.6211 89.7827C39.6211 81.4203 41.8223 74.979 46.281 70.5153C50.7398 66.0516 57.0046 63.7915 65.132 63.7915C71.5097 63.7915 76.4764 65.0911 80.145 67.6337C83.7571 70.2328 86.4662 74.188 88.2723 79.4992L74.501 82.5504C74.1623 81.3638 73.6544 80.1773 72.9771 79.1602C72.1305 77.9737 71.0581 77.0696 69.76 76.3916C68.4619 75.7136 66.9945 75.4311 65.527 75.4311C61.9713 75.4311 59.2622 76.8436 57.3997 79.7253C55.9887 81.8159 55.255 85.1495 55.255 89.6697C55.255 95.2635 56.1016 99.1057 57.7948 101.196C59.488 103.287 61.8584 104.304 64.9626 104.304C67.9539 104.304 70.2115 103.456 71.7354 101.818C73.2593 100.066 74.3881 97.6366 75.0654 94.4725ZM106.954 64.639H122.531V82.3244H139.576V64.639H155.267V115.152H139.576V94.6985H122.531V115.152H106.954V64.639V64.639Z" fill="#2D2F31"/>
<path d="M153.121 89.8958C153.121 81.6464 155.435 75.2051 160.007 70.6284C164.578 66.0517 171.013 63.735 179.196 63.735C187.606 63.735 194.04 65.9952 198.612 70.5154C203.183 75.0356 205.441 81.3639 205.441 89.5003C205.441 95.433 204.425 100.236 202.45 104.021C200.531 107.751 197.539 110.802 193.871 112.836C190.089 114.926 185.405 116 179.817 116C174.117 116 169.432 115.096 165.707 113.288C161.869 111.367 158.709 108.372 156.62 104.699C154.306 100.744 153.121 95.8286 153.121 89.8958ZM168.699 89.9523C168.699 95.0375 169.658 98.7102 171.521 100.97C173.383 103.174 175.979 104.304 179.253 104.304C182.583 104.304 185.179 103.23 187.042 101.027C188.904 98.8232 189.807 94.9245 189.807 89.2743C189.807 84.528 188.848 81.0249 186.929 78.8778C185.01 76.6742 182.413 75.6006 179.14 75.6006C176.261 75.4876 173.496 76.7307 171.577 78.9343C169.658 81.1379 168.699 84.8105 168.699 89.9523V89.9523ZM221.413 89.8958C221.413 81.6464 223.727 75.2051 228.299 70.6284C232.871 66.0517 239.305 63.735 247.489 63.735C255.898 63.735 262.389 65.9952 266.904 70.5154C271.419 75.0356 273.733 81.3639 273.733 89.5003C273.733 95.433 272.717 100.236 270.742 104.021C268.823 107.751 265.832 110.802 262.163 112.836C258.382 114.926 253.697 116 248.11 116C242.409 116 237.725 115.096 234 113.288C230.162 111.367 227.001 108.372 224.913 104.699C222.599 100.744 221.413 95.8286 221.413 89.8958V89.8958ZM236.991 89.9523C236.991 95.0375 237.95 98.7102 239.813 100.97C241.675 103.174 244.272 104.304 247.545 104.304C250.875 104.304 253.471 103.23 255.334 101.027C257.196 98.8232 258.099 94.9245 258.099 89.2743C258.099 84.528 257.14 81.0249 255.221 78.8778C253.302 76.6742 250.706 75.6006 247.432 75.6006C244.554 75.4876 241.732 76.7307 239.869 78.9343C237.95 81.1379 236.991 84.8105 236.991 89.9523V89.9523Z" fill="#2D2F31"/>
<path d="M272.097 64.639H287.675V102.722H312V115.152H272.041V64.639H272.097Z" fill="#2D2F31"/>
<path d="M254.928 61.7239C270.611 49.8922 275.447 29.8357 265.73 16.9263C256.012 4.01694 235.421 3.14329 219.738 14.975C204.055 26.8066 199.218 46.8632 208.936 59.7725C218.653 72.6819 239.245 73.5555 254.928 61.7239Z" fill="white"/>
<path d="M254.928 61.7239C270.611 49.8923 275.447 29.8357 265.73 16.9264C256.012 4.017 235.421 3.14335 219.738 14.975C204.055 26.8067 199.218 46.8632 208.936 59.7726C218.653 72.682 239.245 73.5556 254.928 61.7239Z" fill="white"/>
<path d="M254.928 61.7239C270.611 49.8923 275.447 29.8357 265.73 16.9264C256.012 4.017 235.421 3.14335 219.738 14.975C204.055 26.8067 199.218 46.8632 208.936 59.7726C218.653 72.682 239.245 73.5556 254.928 61.7239Z" fill="white" stroke="black" stroke-width="4" stroke-miterlimit="10"/>
<path d="M254.928 61.7239C270.611 49.8923 275.447 29.8357 265.73 16.9264C256.012 4.017 235.421 3.14335 219.738 14.975C204.055 26.8067 199.218 46.8632 208.936 59.7726C218.653 72.682 239.245 73.5556 254.928 61.7239Z" stroke="black" stroke-width="4" stroke-miterlimit="10"/>
<path d="M254.928 61.7239C270.611 49.8923 275.447 29.8357 265.73 16.9264C256.012 4.017 235.421 3.14335 219.738 14.975C204.055 26.8067 199.218 46.8632 208.936 59.7726C218.653 72.682 239.245 73.5556 254.928 61.7239Z" fill="white" stroke="black" stroke-width="4" stroke-miterlimit="10"/>
<path d="M254.928 61.7239C270.611 49.8923 275.447 29.8357 265.73 16.9264C256.012 4.017 235.421 3.14335 219.738 14.975C204.055 26.8067 199.218 46.8632 208.936 59.7726C218.653 72.682 239.245 73.5556 254.928 61.7239Z" stroke="#2D2F31" stroke-width="4" stroke-miterlimit="10"/>
<path d="M221.471 34.6362L227.115 30.681L234.057 40.5689C235.242 42.151 236.145 43.8461 236.822 45.7107C237.217 47.1233 237.105 48.6488 236.54 50.0049C235.806 51.7 234.621 53.1125 233.041 54.1296C231.178 55.4291 229.598 56.1637 228.243 56.3897C226.945 56.6157 225.591 56.3897 224.349 55.8247C222.995 55.1466 221.809 54.1861 220.906 52.943L225.76 48.4228C226.155 49.0443 226.663 49.6094 227.228 50.0614C227.623 50.3439 228.074 50.5134 228.582 50.5134C228.977 50.5134 229.372 50.3439 229.654 50.1179C230.219 49.7789 230.614 49.1008 230.557 48.4228C230.388 47.4623 229.993 46.5017 229.372 45.7672L221.471 34.6362V34.6362ZM238.403 40.908L243.539 36.8398C244.103 37.5178 244.837 38.0263 245.627 38.3088C246.756 38.6479 247.941 38.4218 248.9 37.6873C249.578 37.2353 250.142 36.6138 250.368 35.8227C250.707 34.8057 250.142 33.6756 249.126 33.3366C248.957 33.2801 248.788 33.2236 248.618 33.2236C247.941 33.1671 246.756 33.4496 245.006 34.1841C242.128 35.3707 239.87 35.8227 238.177 35.6532C236.54 35.4837 235.016 34.6362 234.113 33.2236C233.436 32.263 233.097 31.133 233.041 30.0029C233.041 28.7034 233.379 27.4038 234.113 26.3303C235.186 24.8047 236.484 23.5051 238.064 22.4881C240.434 20.8495 242.523 20.0585 244.329 20.0585C246.135 20.0585 247.828 20.906 249.408 22.6576L244.329 26.6693C243.313 25.3697 241.394 25.0872 240.096 26.1043L239.927 26.2738C239.362 26.6128 238.967 27.1213 238.741 27.7428C238.572 28.1949 238.685 28.7034 238.967 29.0989C239.193 29.3814 239.531 29.6074 239.927 29.6074C240.378 29.6639 241.168 29.4379 242.297 28.9294C245.119 27.7428 247.264 27.0648 248.731 26.8388C249.973 26.6128 251.271 26.7258 252.456 27.2343C253.529 27.6863 254.432 28.4774 255.052 29.4379C255.843 30.568 256.294 31.924 256.351 33.3366C256.407 34.8057 256.012 36.2182 255.222 37.4613C254.206 38.9869 252.908 40.2864 251.384 41.3035C248.28 43.4506 245.74 44.3546 243.708 44.0156C241.507 43.6766 239.701 42.5465 238.403 40.908V40.908Z" fill="#2D2F31"/>
</g>
<defs>
<clipPath id="clip0_319_48">
<rect width="312" height="116" fill="white"/>
</clipPath>
</defs>
</svg>
